<svg id="Layer_1" data-name="Layer 1" xmlns="http://www.w3.org/2000/svg" xmlns:xlink="http://www.w3.org/1999/xlink" viewBox="0 0 617.5 255.86"><defs><style>.cls-1,.cls-14,.cls-19,.cls-33,.cls-36,.cls-6{fill:#fff;}.cls-2,.cls-20,.cls-26,.cls-3{fill:#646e85;}.cls-13,.cls-14,.cls-16,.cls-17,.cls-2,.cls-36,.cls-37{stroke:#626c87;}.cls-11,.cls-12,.cls-13,.cls-14,.cls-16,.cls-17,.cls-18,.cls-19,.cls-2,.cls-24,.cls-28,.cls-33,.cls-35,.cls-36,.cls-37,.cls-4,.cls-5,.cls-6,.cls-7,.cls-8{stroke-miterlimit:10;}.cls-11,.cls-17,.cls-19,.cls-2,.cls-28{stroke-width:1.5px;}.cls-11,.cls-33,.cls-4,.cls-5,.cls-6,.cls-7,.cls-8{stroke:#636d88;}.cls-4,.cls-5,.cls-6,.cls-7,.cls-8{stroke-width:0.94px;}.cls-4{fill:url(#linear-gradient);}.cls-11,.cls-12,.cls-13,.cls-17,.cls-18,.cls-24,.cls-25,.cls-28,.cls-29,.cls-30,.cls-35,.cls-37,.cls-5,.cls-9{fill:none;}.cls-7{fill:url(#linear-gradient-2);}.cls-8{fill:url(#linear-gradient-3);}.cls-19,.cls-24,.cls-25,.cls-9{stroke:#48a69e;}.cls-25,.cls-29,.cls-30,.cls-9{stroke-linejoin:round;}.cls-9{stroke-width:0.94px;}.cls-10{fill:#5d5d5d;}.cls-12,.cls-18,.cls-28{stroke:#646e85;}.cls-12{stroke-width:1.16px;opacity:0.2;}.cls-13,.cls-14,.cls-16{stroke-width:0.78px;}.cls-15{fill:#626c87;}.cls-16{fill:#f2eb80;}.cls-18{stroke-width:1.01px;}.cls-20{font-size:10px;}.cls-20,.cls-26{font-family:Roboto-Regular, Roboto;}.cls-21{letter-spacing:-0.01em;}.cls-22{letter-spacing:-0.01em;}.cls-23{letter-spacing:-0.01em;}.cls-25,.cls-29,.cls-30{stroke-linecap:round;}.cls-25{opacity:0.3;}.cls-26{font-size:12px;}.cls-27{letter-spacing:-0.05em;}.cls-29,.cls-30{stroke:#656f85;stroke-width:0.87px;}.cls-29{isolation:isolate;}.cls-29,.cls-31{opacity:0.3;}.cls-32{letter-spacing:-0.07em;}.cls-33,.cls-35{stroke-width:1.41px;}.cls-34{fill:#636d88;}.cls-35{stroke:#646f83;}.cls-36,.cls-37{stroke-width:1.3px;}.cls-38{fill:#515070;}</style><linearGradient id="linear-gradient" x1="543.94" y1="-650.93" x2="543.94" y2="-635.96" gradientTransform="matrix(1, 0, 0, -1, 0, -500.07)" gradientUnits="userSpaceOnUse"><stop offset="0" stop-color="#4aa69e" stop-opacity="0.8"/><stop offset="0.09" stop-color="#5cafa8" stop-opacity="0.82"/><stop offset="0.54" stop-color="#b3dad6" stop-opacity="0.92"/><stop offset="0.85" stop-color="#eaf5f4" stop-opacity="0.98"/><stop offset="1" stop-color="#fff"/></linearGradient><linearGradient id="linear-gradient-2" x1="532.04" y1="-708.13" x2="532.04" y2="-693.16" xlink:href="#linear-gradient"/><linearGradient id="linear-gradient-3" x1="589.59" y1="-689.3" x2="589.59" y2="-674.33" xlink:href="#linear-gradient"/></defs><rect class="cls-1" x="-5.28" y="-16.11" width="635" height="291"/><polyline class="cls-2" points="78.26 35.15 78.26 80.08 78.26 88.42"/><path class="cls-3" d="M82.92,84.58H73.57a.54.54,0,0,0-.45.85L77.8,92a.55.55,0,0,0,.89,0l4.68-6.6A.54.54,0,0,0,82.92,84.58Z"/><polygon class="cls-4" points="548.26 135.88 539.62 135.88 535.29 143.37 539.62 150.85 548.26 150.85 552.58 143.37 548.26 135.88"/><polygon class="cls-5" points="548.26 135.88 539.62 135.88 535.29 143.37 539.62 150.85 548.26 150.85 552.58 143.37 548.26 135.88"/><circle class="cls-6" cx="543.94" cy="123.26" r="3.64"/><line class="cls-5" x1="543.94" y1="126.9" x2="543.94" y2="133.03"/><circle class="cls-6" cx="543.94" cy="163.48" r="3.64"/><line class="cls-5" x1="543.94" y1="159.84" x2="543.94" y2="153.7"/><circle class="cls-6" cx="526.09" cy="134.5" r="3.64"/><line class="cls-5" x1="529.31" y1="136.16" x2="534.77" y2="138.99"/><circle class="cls-6" cx="561.78" cy="153.01" r="3.64"/><line class="cls-5" x1="558.56" y1="151.33" x2="553.11" y2="148.51"/><circle class="cls-6" cx="525.9" cy="152.62" r="3.64"/><line class="cls-5" x1="529.16" y1="151.02" x2="534.67" y2="148.31"/><circle class="cls-6" cx="561.98" cy="134.87" r="3.64"/><line class="cls-5" x1="558.72" y1="136.48" x2="553.21" y2="139.19"/><polygon class="cls-7" points="536.36 193.09 527.72 193.09 523.4 200.57 527.72 208.06 536.36 208.06 540.68 200.57 536.36 193.09"/><polygon class="cls-5" points="536.36 193.09 527.72 193.09 523.4 200.57 527.72 208.06 536.36 208.06 540.68 200.57 536.36 193.09"/><circle class="cls-6" cx="532.04" cy="180.47" r="3.64"/><line class="cls-5" x1="532.04" y1="184.09" x2="532.04" y2="190.24"/><circle class="cls-6" cx="532.04" cy="220.68" r="3.64"/><line class="cls-5" x1="532.04" y1="217.04" x2="532.04" y2="210.9"/><circle class="cls-6" cx="514.19" cy="191.69" r="3.64"/><line class="cls-5" x1="517.42" y1="193.37" x2="522.87" y2="196.19"/><circle class="cls-6" cx="549.89" cy="210.2" r="3.64"/><line class="cls-5" x1="546.66" y1="208.53" x2="541.22" y2="205.71"/><circle class="cls-6" cx="514" cy="209.82" r="3.64"/><line class="cls-5" x1="517.26" y1="208.22" x2="522.77" y2="205.51"/><circle class="cls-6" cx="550.09" cy="192.08" r="3.64"/><line class="cls-5" x1="546.83" y1="193.68" x2="541.32" y2="196.39"/><circle class="cls-6" cx="571.74" cy="172.87" r="3.64"/><line class="cls-5" x1="574.97" y1="174.54" x2="580.42" y2="177.37"/><circle class="cls-6" cx="571.55" cy="191" r="3.64" transform="translate(291.46 724.58) rotate(-80.78)"/><line class="cls-5" x1="574.81" y1="189.39" x2="580.32" y2="186.68"/><polygon class="cls-8" points="593.91 174.26 585.27 174.26 580.95 181.75 585.27 189.23 593.91 189.23 598.23 181.75 593.91 174.26"/><polygon class="cls-5" points="593.91 174.26 585.27 174.26 580.95 181.75 585.27 189.23 593.91 189.23 598.23 181.75 593.91 174.26"/><circle class="cls-6" cx="589.59" cy="161.63" r="3.64"/><line class="cls-5" x1="589.59" y1="165.27" x2="589.59" y2="171.42"/><circle class="cls-6" cx="589.59" cy="201.85" r="3.64"/><line class="cls-5" x1="589.59" y1="198.22" x2="589.59" y2="192.08"/><circle class="cls-6" cx="607.44" cy="191.38" r="3.64"/><line class="cls-5" x1="604.21" y1="189.7" x2="598.77" y2="186.88"/><circle class="cls-6" cx="607.64" cy="173.25" r="3.64"/><line class="cls-5" x1="604.37" y1="174.86" x2="598.87" y2="177.57"/><g id="Graphic_56-2-2" data-name="Graphic 56-2-2"><path class="cls-1" d="M422.12,212.33h8.42v-5.47a5.65,5.65,0,0,1,0-11.1v-5.49H389.41a2.3,2.3,0,0,0-2.39,2.19v17.68a2.33,2.33,0,0,0,2.39,2.2H426"/><path class="cls-9" d="M422.12,212.33h8.42v-5.47a5.65,5.65,0,0,1,0-11.1v-5.49H389.41a2.3,2.3,0,0,0-2.39,2.19v17.68a2.33,2.33,0,0,0,2.39,2.2H426"/><path class="cls-10" d="M398.85,196.86h1.06v5.69a2.33,2.33,0,0,1-.69,1.8,2.53,2.53,0,0,1-1.84.65,2.72,2.72,0,0,1-1.87-.61,2.29,2.29,0,0,1-.66-1.72h1.06a1.56,1.56,0,0,0,.37,1.08,1.49,1.49,0,0,0,1.1.38,1.39,1.39,0,0,0,1.06-.41,1.54,1.54,0,0,0,.41-1.16Z"/><path class="cls-10" d="M403.45,202.36l.15,1.06.23-1,1.59-5.6h.89l1.55,5.6.22,1,.17-1.08,1.25-5.49h1.06l-1.95,8h-1L406,199l-.13-.61-.13.61L404,204.86h-1l-1.94-8h1.06Z"/><path class="cls-10" d="M417.36,197.73h-2.58v7.13h-1.06V197.7h-2.57v-.84h6.21Z"/></g><g id="Graphic_56-2-3" data-name="Graphic 56-2-3"><path class="cls-1" d="M422.12,158.94h8.42v-5.47a5.65,5.65,0,0,1,0-11.1v-5.49H389.41a2.3,2.3,0,0,0-2.39,2.19v17.68a2.31,2.31,0,0,0,2.39,2.2H426"/><path class="cls-9" d="M422.12,158.94h8.42v-5.47a5.65,5.65,0,0,1,0-11.1v-5.49H389.41a2.3,2.3,0,0,0-2.39,2.19v17.68a2.31,2.31,0,0,0,2.39,2.2H426"/><path class="cls-10" d="M398.85,143.47h1.06v5.73a2.33,2.33,0,0,1-.69,1.8,2.53,2.53,0,0,1-1.84.65,2.72,2.72,0,0,1-1.87-.61,2.29,2.29,0,0,1-.66-1.72h1.06a1.52,1.52,0,0,0,.37,1.08,1.49,1.49,0,0,0,1.1.38,1.38,1.38,0,0,0,1.06-.41,1.54,1.54,0,0,0,.41-1.16Z"/><path class="cls-10" d="M403.45,149l.15,1.06.23-1,1.59-5.6h.89l1.55,5.6.22,1,.17-1.08,1.25-5.49h1.06l-1.95,8h-1L406,145.65l-.13-.61-.13.61L404,151.47h-1l-1.94-8h1.06Z"/><path class="cls-10" d="M417.36,144.34h-2.58v7.13h-1.06v-7.16h-2.57v-.84h6.21Z"/></g><path class="cls-3" d="M442,86.69V77.34a.54.54,0,0,1,.86-.44l6.59,4.67a.54.54,0,0,1,0,.89l-6.59,4.68A.55.55,0,0,1,442,86.69Z"/><polyline class="cls-11" points="347.03 82.27 439.66 82.27 443.86 82.27"/><rect class="cls-12" x="458.64" y="48.89" width="122.61" height="58.87" rx="4.65"/><path class="cls-13" d="M535.42,73.36h6.8A1.73,1.73,0,0,1,544,75.08v5.3a1.74,1.74,0,0,1-1.73,1.73H497.66a1.73,1.73,0,0,1-1.72-1.73v-5.3a1.73,1.73,0,0,1,1.72-1.72h5.17"/><line class="cls-14" x1="502.83" y1="73.36" x2="504.75" y2="73.36"/><circle class="cls-15" cx="539.3" cy="77.64" r="0.95"/><line class="cls-16" x1="498.99" y1="75.76" x2="498.99" y2="79.7"/><line class="cls-16" x1="500.91" y1="75.76" x2="500.91" y2="79.7"/><line class="cls-16" x1="502.83" y1="75.76" x2="502.83" y2="79.7"/><line class="cls-16" x1="504.75" y1="75.76" x2="504.75" y2="79.7"/><path class="cls-15" d="M527.56,67.34l-.2.19a5.47,5.47,0,0,1-3.76,1.72A3.45,3.45,0,0,1,520,65.67a3.41,3.41,0,0,1,3.47-3.58A5.73,5.73,0,0,1,527,63.47l.2.17,1.93-2-.22-.18a8.84,8.84,0,0,0-5.64-2A6.34,6.34,0,0,0,518,62.05h-3.56l-.21,1.75h2.93a6.32,6.32,0,0,0-.21,1h-4.37l-.21,1.76H517a8.1,8.1,0,0,0,.2,1h-6.58l-.21,1.75H518a6.4,6.4,0,0,0,5.39,2.65,8.71,8.71,0,0,0,5.92-2.39l.2-.19Z"/><polygon class="cls-15" points="512.09 64.78 510.81 64.78 510.6 66.53 511.89 66.53 512.09 64.78"/><path class="cls-3" d="M486.51,97h-2.73l-.61,1.71h-.89l2.49-6.52h.75L488,98.7h-.88Zm-2.47-.7h2.22l-1.11-3.05Z"/><path class="cls-3" d="M491.7,98.22a1.74,1.74,0,0,1-1.42.56,1.48,1.48,0,0,1-1.17-.45A1.88,1.88,0,0,1,488.7,97V93.85h.82V97c0,.73.3,1.1.9,1.1a1.23,1.23,0,0,0,1.26-.71V93.85h.83V98.7h-.79Z"/><path class="cls-3" d="M494.89,92.68v1.17h.9v.64h-.9v3a.7.7,0,0,0,.12.44.53.53,0,0,0,.41.14,2.53,2.53,0,0,0,.4,0v.67a2.87,2.87,0,0,1-.64.08,1,1,0,0,1-.84-.33,1.47,1.47,0,0,1-.28-1v-3h-.88v-.64h.88V92.68Z"/><path class="cls-3" d="M497.59,94.44a1.76,1.76,0,0,1,1.43-.68c1,0,1.54.58,1.55,1.73V98.7h-.83V95.49a1.06,1.06,0,0,0-.24-.77.94.94,0,0,0-.73-.25,1.24,1.24,0,0,0-.71.21,1.43,1.43,0,0,0-.47.56V98.7h-.83V91.82h.83Z"/><path class="cls-3" d="M501.59,96.23a2.8,2.8,0,0,1,.28-1.28,2.06,2.06,0,0,1,1.92-1.19,2,2,0,0,1,1.6.69,2.6,2.6,0,0,1,.61,1.82v.06a2.92,2.92,0,0,1-.27,1.27,2.06,2.06,0,0,1-.78.87,2.11,2.11,0,0,1-1.15.31,2,2,0,0,1-1.6-.68,2.61,2.61,0,0,1-.61-1.81Zm.83.1a2.06,2.06,0,0,0,.38,1.29,1.26,1.26,0,0,0,2,0,2.24,2.24,0,0,0,.37-1.38,2,2,0,0,0-.38-1.29,1.25,1.25,0,0,0-2,0A2.26,2.26,0,0,0,502.42,96.33Z"/><path class="cls-3" d="M509.38,94.6a1.78,1.78,0,0,0-.41,0,1.09,1.09,0,0,0-1.1.7V98.7H507V93.85h.8l0,.56a1.28,1.28,0,0,1,1.15-.65.74.74,0,0,1,.37.07Z"/><path class="cls-3" d="M510.14,92.57a.49.49,0,0,1,.13-.34.46.46,0,0,1,.36-.14.48.48,0,0,1,.37.14.49.49,0,0,1,.12.34.45.45,0,0,1-.49.47.46.46,0,0,1-.36-.14A.49.49,0,0,1,510.14,92.57Zm.9,6.13h-.83V93.85H511Z"/><path class="cls-3" d="M513.14,98H516v.68h-3.85v-.61l2.67-3.55h-2.63v-.69h3.67v.59Z"/><path class="cls-3" d="M519.9,98.7a1.72,1.72,0,0,1-.12-.51,1.86,1.86,0,0,1-1.38.59,1.7,1.7,0,0,1-1.17-.4,1.3,1.3,0,0,1-.46-1,1.37,1.37,0,0,1,.57-1.17,2.74,2.74,0,0,1,1.62-.42h.81v-.38a.94.94,0,0,0-.26-.69,1.05,1.05,0,0,0-.77-.26,1.2,1.2,0,0,0-.74.22.66.66,0,0,0-.3.55h-.83a1.16,1.16,0,0,1,.25-.71,1.88,1.88,0,0,1,.7-.53,2.4,2.4,0,0,1,1-.2,1.89,1.89,0,0,1,1.31.42,1.53,1.53,0,0,1,.5,1.15v2.23a2.58,2.58,0,0,0,.17,1.06v.08Zm-1.38-.64a1.4,1.4,0,0,0,.74-.2,1.27,1.27,0,0,0,.51-.52v-1h-.65c-1,0-1.52.29-1.52.89a.71.71,0,0,0,.26.6A1,1,0,0,0,518.52,98.06Z"/><path class="cls-3" d="M523,92.68v1.17h.9v.64H523v3a.7.7,0,0,0,.12.44.53.53,0,0,0,.41.14,2.3,2.3,0,0,0,.39,0v.67a2.79,2.79,0,0,1-.63.08,1,1,0,0,1-.84-.33,1.42,1.42,0,0,1-.28-1v-3h-.88v-.64h.88V92.68Z"/><path class="cls-3" d="M524.89,92.57a.45.45,0,0,1,.13-.34.46.46,0,0,1,.36-.14.5.5,0,0,1,.37.14.49.49,0,0,1,.12.34.48.48,0,0,1-.12.33.5.5,0,0,1-.37.14.46.46,0,0,1-.36-.14A.44.44,0,0,1,524.89,92.57Zm.9,6.13H525V93.85h.83Z"/><path class="cls-3" d="M526.89,96.23a2.94,2.94,0,0,1,.28-1.28,2.16,2.16,0,0,1,.78-.88,2.19,2.19,0,0,1,1.14-.31,2,2,0,0,1,1.6.69,2.6,2.6,0,0,1,.61,1.82v.06A2.92,2.92,0,0,1,531,97.6a2.1,2.1,0,0,1-.77.87,2.14,2.14,0,0,1-1.16.31,2,2,0,0,1-1.6-.68,2.66,2.66,0,0,1-.61-1.81Zm.84.1a2.06,2.06,0,0,0,.37,1.29,1.26,1.26,0,0,0,2,0,2.24,2.24,0,0,0,.37-1.38,2.08,2.08,0,0,0-.37-1.29,1.22,1.22,0,0,0-1-.5,1.2,1.2,0,0,0-1,.49A2.27,2.27,0,0,0,527.73,96.33Z"/><path class="cls-3" d="M533.12,93.85l0,.61a1.78,1.78,0,0,1,1.45-.7c1,0,1.54.58,1.55,1.73V98.7h-.83V95.49a1.06,1.06,0,0,0-.24-.77.94.94,0,0,0-.73-.25,1.24,1.24,0,0,0-.71.21,1.43,1.43,0,0,0-.47.56V98.7h-.83V93.85Z"/><path class="cls-3" d="M541.72,95.79a4,4,0,0,1-1.61-.78,1.48,1.48,0,0,1-.51-1.14,1.59,1.59,0,0,1,.62-1.28,2.47,2.47,0,0,1,1.6-.5,2.71,2.71,0,0,1,1.2.26,1.94,1.94,0,0,1,.81.71,1.79,1.79,0,0,1,.29,1h-.86a1.21,1.21,0,0,0-.38-.93,1.5,1.5,0,0,0-1.06-.34,1.55,1.55,0,0,0-1,.28.94.94,0,0,0-.36.78.84.84,0,0,0,.34.67A3.2,3.2,0,0,0,542,95a5.31,5.31,0,0,1,1.27.5,1.92,1.92,0,0,1,.68.64,1.66,1.66,0,0,1,.23.87,1.53,1.53,0,0,1-.62,1.27,2.63,2.63,0,0,1-1.65.47,3.12,3.12,0,0,1-1.26-.25,2.15,2.15,0,0,1-.9-.71,1.7,1.7,0,0,1-.31-1h.86a1.13,1.13,0,0,0,.44.93,1.83,1.83,0,0,0,1.17.34,1.65,1.65,0,0,0,1-.28.88.88,0,0,0,.36-.75.86.86,0,0,0-.34-.74A3.62,3.62,0,0,0,541.72,95.79Z"/><path class="cls-3" d="M547.12,98.78a2.14,2.14,0,0,1-1.61-.64,2.41,2.41,0,0,1-.61-1.73v-.15a3,3,0,0,1,.27-1.29,2.16,2.16,0,0,1,.77-.89,2,2,0,0,1,1.07-.32,1.83,1.83,0,0,1,1.47.62,2.71,2.71,0,0,1,.52,1.79v.34h-3.28a1.82,1.82,0,0,0,.42,1.16,1.34,1.34,0,0,0,1,.44,1.42,1.42,0,0,0,.74-.18,2,2,0,0,0,.54-.47l.5.39A2,2,0,0,1,547.12,98.78ZM547,94.44a1.09,1.09,0,0,0-.84.37,1.71,1.71,0,0,0-.42,1h2.43v-.06a1.64,1.64,0,0,0-.34-1A1.06,1.06,0,0,0,547,94.44Z"/><path class="cls-3" d="M552.3,94.6a1.7,1.7,0,0,0-.4,0,1.1,1.1,0,0,0-1.11.7V98.7H550V93.85h.81v.56a1.3,1.3,0,0,1,1.16-.65.7.7,0,0,1,.36.07Z"/><path class="cls-3" d="M554.74,97.57l1.2-3.72h.85l-1.74,4.85h-.63l-1.75-4.85h.84Z"/><path class="cls-3" d="M559.54,98.78a2.14,2.14,0,0,1-1.61-.64,2.41,2.41,0,0,1-.61-1.73v-.15a3,3,0,0,1,.27-1.29,2.23,2.23,0,0,1,.77-.89,2,2,0,0,1,1.07-.32,1.83,1.83,0,0,1,1.47.62,2.71,2.71,0,0,1,.53,1.79v.34h-3.29a1.82,1.82,0,0,0,.42,1.16,1.34,1.34,0,0,0,1,.44,1.42,1.42,0,0,0,.74-.18,2,2,0,0,0,.54-.47l.5.39A2,2,0,0,1,559.54,98.78Zm-.11-4.34a1.09,1.09,0,0,0-.84.37,1.84,1.84,0,0,0-.42,1h2.43v-.06a1.64,1.64,0,0,0-.34-1A1.06,1.06,0,0,0,559.43,94.44Z"/><path class="cls-3" d="M564.72,94.6a1.7,1.7,0,0,0-.4,0,1.1,1.1,0,0,0-1.11.7V98.7h-.83V93.85h.81v.56a1.3,1.3,0,0,1,1.16-.65.7.7,0,0,1,.36.07Z"/><path class="cls-17" d="M345.77,182.13H451.26a5.13,5.13,0,0,1,5.13,5.13v17.35a5.13,5.13,0,0,0,5.13,5.13h35.42"/><path class="cls-3" d="M495.24,214.42v-9.36a.54.54,0,0,1,.86-.44l6.59,4.68a.54.54,0,0,1,0,.88l-6.59,4.68A.54.54,0,0,1,495.24,214.42Z"/><path class="cls-17" d="M345.47,166.07H451a5.12,5.12,0,0,0,5.13-5.13V143.59a5.14,5.14,0,0,1,5.14-5.13h35.42"/><path class="cls-3" d="M494.94,133.78v9.36a.54.54,0,0,0,.85.44l6.6-4.68a.54.54,0,0,0,0-.88l-6.6-4.68A.54.54,0,0,0,494.94,133.78Z"/><path class="cls-3" d="M132.84,83.44h-1.09V76.22l-2.19.8V76l3.11-1.17h.17Z"/><path class="cls-3" d="M137.94,78.47a.47.47,0,0,0-.2-.4,1.77,1.77,0,0,0-.67-.25,3.1,3.1,0,0,1-.76-.24,1.14,1.14,0,0,1-.42-.34.84.84,0,0,1-.13-.48,1,1,0,0,1,.38-.76,1.7,1.7,0,0,1,2,0,1,1,0,0,1,.39.83h-.63a.55.55,0,0,0-.22-.45.81.81,0,0,0-.56-.19.87.87,0,0,0-.54.15.47.47,0,0,0-.19.39.39.39,0,0,0,.18.35,2.16,2.16,0,0,0,.65.22,3.66,3.66,0,0,1,.77.25,1.16,1.16,0,0,1,.44.36.89.89,0,0,1,.14.5,1,1,0,0,1-.4.8,1.64,1.64,0,0,1-1,.29,1.94,1.94,0,0,1-.78-.15,1.31,1.31,0,0,1-.54-.44,1.12,1.12,0,0,1-.19-.61h.63a.64.64,0,0,0,.26.5.94.94,0,0,0,.62.19,1,1,0,0,0,.58-.15A.44.44,0,0,0,137.94,78.47Z"/><path class="cls-3" d="M140.25,74.86v.89h.69v.49h-.69v2.29a.55.55,0,0,0,.09.34.41.41,0,0,0,.32.11,1.37,1.37,0,0,0,.3,0v.51a2.12,2.12,0,0,1-.49.06.8.8,0,0,1-.64-.25,1.11,1.11,0,0,1-.21-.73V76.24h-.68v-.49h.68v-.89Z"/><path class="cls-3" d="M150.35,80.34a3.82,3.82,0,0,1-.67,2.34,2.14,2.14,0,0,1-1.79.88,2.34,2.34,0,0,1-1.82-.73v3H145V77.1h1l.05.71a2.23,2.23,0,0,1,1.84-.82,2.15,2.15,0,0,1,1.81.86,3.84,3.84,0,0,1,.67,2.39Zm-1.09-.12a2.76,2.76,0,0,0-.46-1.69,1.45,1.45,0,0,0-1.25-.62,1.6,1.6,0,0,0-1.48.87v3a1.6,1.6,0,0,0,1.49.87,1.48,1.48,0,0,0,1.24-.62A3.07,3.07,0,0,0,149.26,80.22Z"/><path class="cls-3" d="M155.64,83.44a2,2,0,0,1-.16-.67,2.38,2.38,0,0,1-1.8.79,2.25,2.25,0,0,1-1.54-.53,1.71,1.71,0,0,1-.6-1.35,1.77,1.77,0,0,1,.75-1.53,3.54,3.54,0,0,1,2.12-.55h1.06v-.5a1.22,1.22,0,0,0-.34-.9,1.36,1.36,0,0,0-1-.34,1.62,1.62,0,0,0-1,.29.87.87,0,0,0-.39.71h-1.09a1.48,1.48,0,0,1,.34-.92,2.41,2.41,0,0,1,.91-.7,3.13,3.13,0,0,1,1.27-.25,2.55,2.55,0,0,1,1.72.54,2,2,0,0,1,.64,1.51V82a3.55,3.55,0,0,0,.22,1.39v.09Zm-1.8-.82a1.84,1.84,0,0,0,1-.27,1.57,1.57,0,0,0,.67-.68v-1.3h-.85c-1.33,0-2,.39-2,1.16a1,1,0,0,0,.34.8A1.33,1.33,0,0,0,153.84,82.62Z"/><path class="cls-3" d="M161.31,78.08a2.89,2.89,0,0,0-.53,0,1.45,1.45,0,0,0-1.45.91v4.5h-1.08V77.1h1.05l0,.74a1.69,1.69,0,0,1,1.51-.85,1,1,0,0,1,.48.08Z"/><path class="cls-3" d="M164.07,75.57V77.1h1.19v.84h-1.19v3.94a.92.92,0,0,0,.16.57.67.67,0,0,0,.54.19,2.41,2.41,0,0,0,.52-.07v.87a3.15,3.15,0,0,1-.84.12,1.36,1.36,0,0,1-1.09-.44,1.87,1.87,0,0,1-.37-1.25V77.94h-1.15V77.1H163V75.57Z"/><path class="cls-3" d="M168.6,81.85l1.47-4.75h1.16l-2.54,7.32c-.4,1.06-1,1.58-1.89,1.58h-.2l-.4-.08V85l.29,0a1.44,1.44,0,0,0,.86-.22,1.63,1.63,0,0,0,.5-.81l.24-.65-2.26-6.27H167Z"/><path class="cls-3" d="M177.71,82.68a1.55,1.55,0,0,0,1-.36,1.21,1.21,0,0,0,.48-.88h1a2,2,0,0,1-.37,1,2.53,2.53,0,0,1-.92.79,2.78,2.78,0,0,1-1.23.29,2.6,2.6,0,0,1-2.05-.86,3.47,3.47,0,0,1-.77-2.37v-.18a3.77,3.77,0,0,1,.34-1.65,2.61,2.61,0,0,1,1-1.12,2.79,2.79,0,0,1,1.5-.39,2.56,2.56,0,0,1,1.77.63,2.29,2.29,0,0,1,.75,1.66h-1a1.5,1.5,0,0,0-.47-1,1.45,1.45,0,0,0-1-.39,1.5,1.5,0,0,0-1.28.59,2.82,2.82,0,0,0-.46,1.72v.21a2.65,2.65,0,0,0,.46,1.68A1.51,1.51,0,0,0,177.71,82.68Z"/><path class="cls-3" d="M181.17,80.21a3.76,3.76,0,0,1,.36-1.67A2.68,2.68,0,0,1,184,77a2.67,2.67,0,0,1,2.1.89,3.47,3.47,0,0,1,.8,2.39v.07a3.71,3.71,0,0,1-.36,1.66,2.63,2.63,0,0,1-1,1.15,2.86,2.86,0,0,1-1.52.41,2.65,2.65,0,0,1-2.08-.9,3.39,3.39,0,0,1-.8-2.37Zm1.09.13a2.76,2.76,0,0,0,.48,1.7,1.6,1.6,0,0,0,1.31.64,1.57,1.57,0,0,0,1.32-.65,3,3,0,0,0,.48-1.82,2.73,2.73,0,0,0-.49-1.69,1.66,1.66,0,0,0-2.61,0A3,3,0,0,0,182.26,80.34Z"/><path class="cls-3" d="M188,80.21a3.63,3.63,0,0,1,.37-1.67,2.66,2.66,0,0,1,1-1.15,2.75,2.75,0,0,1,1.49-.4,2.65,2.65,0,0,1,2.09.89,3.47,3.47,0,0,1,.8,2.39v.07a3.85,3.85,0,0,1-.35,1.66,2.72,2.72,0,0,1-1,1.15,2.82,2.82,0,0,1-1.51.41,2.66,2.66,0,0,1-2.09-.9,3.43,3.43,0,0,1-.8-2.37Zm1.09.13a2.7,2.7,0,0,0,.49,1.7,1.57,1.57,0,0,0,1.31.64,1.55,1.55,0,0,0,1.31-.65,3,3,0,0,0,.49-1.82,2.74,2.74,0,0,0-.5-1.69,1.66,1.66,0,0,0-2.61,0A3,3,0,0,0,189.1,80.34Z"/><path class="cls-3" d="M196.91,80.51l-.68.71v2.22h-1.08v-9h1.08v5.45l.58-.7,2-2.09h1.32l-2.46,2.65,2.75,3.69h-1.27Z"/><path class="cls-3" d="M201.23,75.42a.63.63,0,0,1,.16-.44.7.7,0,0,1,1,0,.63.63,0,0,1,.16.44.64.64,0,1,1-1.28,0Zm1.17,8h-1.08V77.1h1.08Z"/><path class="cls-3" d="M206.77,83.56a2.76,2.76,0,0,1-2.1-.85,3.13,3.13,0,0,1-.81-2.26v-.2a3.85,3.85,0,0,1,.36-1.69,2.86,2.86,0,0,1,1-1.16,2.6,2.6,0,0,1,1.4-.41,2.37,2.37,0,0,1,1.92.81,3.5,3.5,0,0,1,.69,2.33v.45h-4.3a2.29,2.29,0,0,0,.55,1.52,1.73,1.73,0,0,0,1.33.58,1.87,1.87,0,0,0,1-.24,2.53,2.53,0,0,0,.69-.62l.67.52A2.68,2.68,0,0,1,206.77,83.56Zm-.14-5.68a1.47,1.47,0,0,0-1.1.47,2.32,2.32,0,0,0-.55,1.34h3.17v-.08a2.08,2.08,0,0,0-.44-1.28A1.38,1.38,0,0,0,206.63,77.88Z"/><path class="cls-3" d="M132.84,177.52h-1.09v-7.23l-2.19.81v-1l3.11-1.17h.17Z"/><path class="cls-3" d="M137.94,172.54a.48.48,0,0,0-.2-.4,2,2,0,0,0-.67-.24,3.06,3.06,0,0,1-.76-.25,1,1,0,0,1-.42-.34.81.81,0,0,1-.13-.47,1,1,0,0,1,.38-.77,1.74,1.74,0,0,1,2,0,1,1,0,0,1,.39.83h-.63a.58.58,0,0,0-.22-.45.86.86,0,0,0-.56-.18.87.87,0,0,0-.54.15.47.47,0,0,0-.19.39.37.37,0,0,0,.18.34,2.11,2.11,0,0,0,.65.23,3.16,3.16,0,0,1,.77.25,1.14,1.14,0,0,1,.44.35,1,1,0,0,1-.26,1.3,1.64,1.64,0,0,1-1,.3,1.78,1.78,0,0,1-.78-.16,1.24,1.24,0,0,1-.54-.44,1.1,1.1,0,0,1-.19-.61h.63a.66.66,0,0,0,.26.51,1,1,0,0,0,.62.18,1.11,1.11,0,0,0,.58-.14A.47.47,0,0,0,137.94,172.54Z"/><path class="cls-3" d="M140.25,168.93v.89h.69v.49h-.69v2.3a.5.5,0,0,0,.09.33.38.38,0,0,0,.32.11,1.37,1.37,0,0,0,.3,0v.51a1.71,1.71,0,0,1-.49.07.81.81,0,0,1-.64-.26,1.1,1.1,0,0,1-.21-.72v-2.3h-.68v-.49h.68v-.89Z"/><path class="cls-3" d="M150.35,174.42a3.81,3.81,0,0,1-.67,2.33,2.12,2.12,0,0,1-1.79.88,2.34,2.34,0,0,1-1.82-.73v3H145v-8.77h1l.05.7a2.23,2.23,0,0,1,1.84-.82,2.17,2.17,0,0,1,1.81.86,3.87,3.87,0,0,1,.67,2.4Zm-1.09-.13a2.78,2.78,0,0,0-.46-1.69,1.47,1.47,0,0,0-1.25-.62,1.6,1.6,0,0,0-1.48.87v3a1.6,1.6,0,0,0,1.49.87,1.48,1.48,0,0,0,1.24-.62A3,3,0,0,0,149.26,174.29Z"/><path class="cls-3" d="M155.64,177.52a2.09,2.09,0,0,1-.16-.67,2.41,2.41,0,0,1-1.8.78,2.2,2.2,0,0,1-1.54-.53,1.71,1.71,0,0,1-.6-1.34,1.8,1.8,0,0,1,.75-1.54,3.61,3.61,0,0,1,2.12-.55h1.06v-.49a1.25,1.25,0,0,0-.34-.91,1.4,1.4,0,0,0-1-.34,1.56,1.56,0,0,0-1,.3.85.85,0,0,0-.39.7h-1.09A1.45,1.45,0,0,1,152,172a2.23,2.23,0,0,1,.91-.7,3.13,3.13,0,0,1,1.27-.26,2.5,2.5,0,0,1,1.72.55,2,2,0,0,1,.64,1.51V176a3.51,3.51,0,0,0,.22,1.39v.1Zm-1.8-.83a1.92,1.92,0,0,0,1-.26,1.64,1.64,0,0,0,.67-.69v-1.3h-.85c-1.33,0-2,.39-2,1.17a1,1,0,0,0,.34.79A1.28,1.28,0,0,0,153.84,176.69Z"/><path class="cls-3" d="M161.31,172.15a2.93,2.93,0,0,0-.53,0,1.43,1.43,0,0,0-1.45.91v4.5h-1.08v-6.34h1.05l0,.73a1.69,1.69,0,0,1,1.51-.85,1.19,1.19,0,0,1,.48.08Z"/><path class="cls-3" d="M164.07,169.64v1.54h1.19V172h-1.19V176a.88.88,0,0,0,.16.57.67.67,0,0,0,.54.19,2.41,2.41,0,0,0,.52-.07v.88a3.13,3.13,0,0,1-.84.11,1.33,1.33,0,0,1-1.09-.44A1.84,1.84,0,0,1,163,176V172h-1.15v-.84H163v-1.54Z"/><path class="cls-3" d="M168.6,175.93l1.47-4.75h1.16l-2.54,7.32c-.4,1.05-1,1.58-1.89,1.58l-.2,0-.4-.08v-.88l.29,0a1.52,1.52,0,0,0,.86-.22,1.62,1.62,0,0,0,.5-.82l.24-.64-2.26-6.27H167Z"/><path class="cls-3" d="M177.71,176.75a1.6,1.6,0,0,0,1-.35,1.24,1.24,0,0,0,.48-.88h1a2,2,0,0,1-.37,1,2.51,2.51,0,0,1-.92.78,2.65,2.65,0,0,1-1.23.29,2.57,2.57,0,0,1-2.05-.86,3.44,3.44,0,0,1-.77-2.36v-.19a3.76,3.76,0,0,1,.34-1.64,2.55,2.55,0,0,1,1-1.12,2.71,2.71,0,0,1,1.5-.4,2.52,2.52,0,0,1,1.77.64,2.27,2.27,0,0,1,.75,1.66h-1a1.48,1.48,0,0,0-.47-1,1.42,1.42,0,0,0-1-.4,1.51,1.51,0,0,0-1.28.6,2.8,2.8,0,0,0-.46,1.72v.2a2.7,2.7,0,0,0,.46,1.69A1.53,1.53,0,0,0,177.71,176.75Z"/><path class="cls-3" d="M181.17,174.29a3.83,3.83,0,0,1,.36-1.68,2.86,2.86,0,0,1,1-1.15,2.77,2.77,0,0,1,1.49-.4,2.68,2.68,0,0,1,2.1.9,3.44,3.44,0,0,1,.8,2.38v.08a3.74,3.74,0,0,1-.36,1.66,2.61,2.61,0,0,1-1,1.14,2.77,2.77,0,0,1-1.52.41,2.64,2.64,0,0,1-2.08-.89,3.41,3.41,0,0,1-.8-2.38Zm1.09.13a2.75,2.75,0,0,0,.48,1.69,1.66,1.66,0,0,0,2.63,0,3,3,0,0,0,.48-1.81,2.69,2.69,0,0,0-.49-1.69A1.58,1.58,0,0,0,184,172a1.55,1.55,0,0,0-1.29.64A2.93,2.93,0,0,0,182.26,174.42Z"/><path class="cls-3" d="M188,174.29a3.7,3.7,0,0,1,.37-1.68,2.72,2.72,0,0,1,1-1.15,2.75,2.75,0,0,1,1.49-.4,2.66,2.66,0,0,1,2.09.9,3.44,3.44,0,0,1,.8,2.38v.08a3.88,3.88,0,0,1-.35,1.66,2.69,2.69,0,0,1-1,1.14,2.74,2.74,0,0,1-1.51.41,2.65,2.65,0,0,1-2.09-.89,3.46,3.46,0,0,1-.8-2.38Zm1.09.13a2.69,2.69,0,0,0,.49,1.69,1.65,1.65,0,0,0,2.62,0,3,3,0,0,0,.49-1.81,2.7,2.7,0,0,0-.5-1.69,1.58,1.58,0,0,0-1.31-.65,1.55,1.55,0,0,0-1.3.64A2.93,2.93,0,0,0,189.1,174.42Z"/><path class="cls-3" d="M196.91,174.58l-.68.71v2.23h-1.08v-9h1.08V174l.58-.7,2-2.08h1.32l-2.46,2.65,2.75,3.69h-1.27Z"/><path class="cls-3" d="M201.23,169.5a.64.64,0,0,1,.16-.45.73.73,0,0,1,1,0,.64.64,0,0,1,.16.45.59.59,0,0,1-.16.43.73.73,0,0,1-1,0A.59.59,0,0,1,201.23,169.5Zm1.17,8h-1.08v-6.34h1.08Z"/><path class="cls-3" d="M206.77,177.63a2.79,2.79,0,0,1-2.1-.84,3.15,3.15,0,0,1-.81-2.27v-.2a3.77,3.77,0,0,1,.36-1.68,2.79,2.79,0,0,1,1-1.16,2.52,2.52,0,0,1,1.4-.42,2.37,2.37,0,0,1,1.92.81,3.53,3.53,0,0,1,.69,2.34v.45h-4.3a2.26,2.26,0,0,0,.55,1.51,1.7,1.7,0,0,0,1.33.58,2,2,0,0,0,1-.23,2.57,2.57,0,0,0,.69-.63l.67.52A2.66,2.66,0,0,1,206.77,177.63Zm-.14-5.68a1.44,1.44,0,0,0-1.1.48,2.29,2.29,0,0,0-.55,1.34h3.17v-.09a2.11,2.11,0,0,0-.44-1.28A1.38,1.38,0,0,0,206.63,172Z"/><circle class="cls-18" cx="77.56" cy="17.56" r="12.02"/><ellipse class="cls-18" cx="77.56" cy="17.56" rx="6.67" ry="12.02"/><line class="cls-18" x1="66.25" y1="13.45" x2="88.87" y2="13.45"/><line class="cls-18" x1="66.25" y1="20.98" x2="89.09" y2="20.98"/><path class="cls-19" d="M346,90.76l-.17-23.69-20.37.14C323.37,75,315.05,80.9,305,81s-18.45-5.69-20.63-13.45L264,67.67l.85,115.85c0,3.7,3.71,6.71,8.18,6.67l65.54-.48c4.47,0,8.1-3.09,8.08-6.79L345.9,79.79"/><text class="cls-20" transform="translate(278.15 118.96)"><tspan class="cls-21">O</tspan><tspan class="cls-22" x="6.77" y="0">A</tspan><tspan x="13.24" y="0">uth Agent</tspan></text><text class="cls-20" transform="translate(278.41 154.59)"><tspan class="cls-21">O</tspan><tspan class="cls-22" x="6.77" y="0">A</tspan><tspan x="13.24" y="0">uth P</tspan><tspan class="cls-23" x="36.31" y="0">ro</tspan><tspan x="45.2" y="0">xy</tspan></text><rect class="cls-24" x="272.08" y="141.2" width="66.15" height="21.29"/><path class="cls-25" d="M281.41,195.41l61.87-.45c4.47,0,8.1-3.09,8.07-6.79l-.15-21.44"/><text class="cls-26" transform="translate(267.99 43.67)"><tspan class="cls-27">T</tspan><tspan x="6.58" y="0">o</tspan><tspan class="cls-23" x="13.42" y="0">k</tspan><tspan x="19.39" y="0">en Handler</tspan></text><rect class="cls-24" x="272.44" y="104.76" width="66.15" height="21.29"/><line class="cls-28" x1="117.12" y1="109.3" x2="259.21" y2="109.3"/><path class="cls-3" d="M259.21,114.8v-9.36a.54.54,0,0,1,.85-.44l6.59,4.68a.53.53,0,0,1,0,.88l-6.59,4.68A.54.54,0,0,1,259.21,114.8Z"/><circle class="cls-1" cx="219.63" cy="109.3" r="21.01"/><path class="cls-29" d="M231.34,103.39a4.6,4.6,0,0,1-.91.08,5.63,5.63,0,0,1-5.64-5.62v0h0V97.5A5.6,5.6,0,0,1,222.5,94a15.53,15.53,0,1,0,12.79,17.85,15.26,15.26,0,0,0,0-4.86A5.64,5.64,0,0,1,231.34,103.39Z"/><circle class="cls-30" cx="215.91" cy="103.03" r="3.11"/><circle class="cls-30" cx="218.58" cy="118.84" r="2.01"/><circle class="cls-30" cx="221.66" cy="106.61" r="1.1"/><circle class="cls-30" cx="216.69" cy="112.72" r="1.1"/><circle class="cls-30" cx="224.29" cy="113.76" r="2.45"/><circle class="cls-30" cx="208.58" cy="106.61" r="1.54"/><circle class="cls-30" cx="229.99" cy="110.12" r="1.54"/><circle class="cls-30" cx="210.85" cy="113.76" r="2.45"/><path class="cls-30" d="M230.65,103.39a4.6,4.6,0,0,1-.91.08,5.65,5.65,0,0,1-5.65-5.65v-.33A5.6,5.6,0,0,1,221.8,94a15.53,15.53,0,1,0,12.79,17.85,15.24,15.24,0,0,0,.21-2.53,16.49,16.49,0,0,0-.17-2.33A5.65,5.65,0,0,1,230.65,103.39Z"/><g class="cls-31"><path class="cls-30" d="M212.14,118.37a1.32,1.32,0,0,1,1.31,1.29h0"/><path class="cls-30" d="M213.73,110.39a2.2,2.2,0,0,1,2.18-2.18"/><path class="cls-30" d="M224.93,120.55a2.19,2.19,0,0,1,2.18-2.18h0"/><path class="cls-30" d="M220,111.94a1.11,1.11,0,0,1,0,1.55"/><path class="cls-30" d="M219.07,97.3a1.09,1.09,0,0,1-1.53,0h0"/><path class="cls-30" d="M226.93,108.42a1.09,1.09,0,0,1-1.53,0h0"/></g><line class="cls-28" x1="117.12" y1="147.97" x2="259.21" y2="147.97"/><path class="cls-3" d="M259.21,153.47v-9.36a.54.54,0,0,1,.85-.44l6.59,4.68a.53.53,0,0,1,0,.88l-6.59,4.68A.54.54,0,0,1,259.21,153.47Z"/><circle class="cls-1" cx="219.63" cy="147.97" r="21.01"/><path class="cls-29" d="M231.34,142.06a4.6,4.6,0,0,1-.91.08,5.63,5.63,0,0,1-5.64-5.62v0h0v-.33a5.6,5.6,0,0,1-2.29-3.51,15.53,15.53,0,1,0,12.79,17.85,15.26,15.26,0,0,0,0-4.86A5.64,5.64,0,0,1,231.34,142.06Z"/><circle class="cls-30" cx="215.91" cy="141.7" r="3.11"/><circle class="cls-30" cx="218.58" cy="157.51" r="2.01"/><circle class="cls-30" cx="221.66" cy="145.28" r="1.1"/><circle class="cls-30" cx="216.69" cy="151.39" r="1.1"/><circle class="cls-30" cx="224.29" cy="152.43" r="2.45"/><circle class="cls-30" cx="208.58" cy="145.28" r="1.54"/><circle class="cls-30" cx="229.99" cy="148.79" r="1.54"/><circle class="cls-30" cx="210.85" cy="152.43" r="2.45"/><path class="cls-30" d="M230.65,142.06a4.6,4.6,0,0,1-.91.08,5.65,5.65,0,0,1-5.65-5.65v-.33a5.55,5.55,0,0,1-2.29-3.51,15.53,15.53,0,1,0,12.79,17.85,15.24,15.24,0,0,0,.21-2.53,16.49,16.49,0,0,0-.17-2.33A5.65,5.65,0,0,1,230.65,142.06Z"/><g class="cls-31"><path class="cls-30" d="M212.14,157a1.32,1.32,0,0,1,1.31,1.29h0"/><path class="cls-30" d="M213.73,149.06a2.2,2.2,0,0,1,2.18-2.18"/><path class="cls-30" d="M224.93,159.22a2.19,2.19,0,0,1,2.18-2.18h0"/><path class="cls-30" d="M220,150.61a1.11,1.11,0,0,1,0,1.55"/><path class="cls-30" d="M219.07,136a1.09,1.09,0,0,1-1.53,0h0"/><path class="cls-30" d="M226.93,147.09a1.09,1.09,0,0,1-1.53,0h0"/></g><text class="cls-20" transform="translate(514 242.29)">API</text><text class="cls-20" transform="translate(36.03 182.13)">S<tspan class="cls-32" x="5.93" y="0">P</tspan><tspan x="11.57" y="0">A</tspan></text><text class="cls-20" transform="translate(95.84 24.64)">CDN</text><path class="cls-33" d="M76.71,158.32H43.5a5.46,5.46,0,0,1-5.65-5.22V109.31H77.49"/><path class="cls-33" d="M76.71,158.32h34.76a5.47,5.47,0,0,0,5.65-5.22V109.31H77.49"/><path class="cls-33" d="M77.49,109.31h39.63v-5.8a5.24,5.24,0,0,0-5.21-5.21H43.07a5.23,5.23,0,0,0-5.21,5.21v5.8H77.49"/><circle class="cls-34" cx="44.04" cy="103.81" r="1.94"/><circle class="cls-34" cx="52.18" cy="103.81" r="1.94"/><circle class="cls-34" cx="60.32" cy="103.81" r="1.94"/><line class="cls-35" x1="59.66" y1="129.32" x2="59.66" y2="139.65"/><rect class="cls-35" x="51.52" y="124.51" width="57.28" height="20.06" rx="3.4"/><path class="cls-36" d="M18.51,122.55A13.41,13.41,0,1,1,5.09,136"/><path class="cls-37" d="M26.82,146.64v-2a4,4,0,0,0-3.94-3.94H15a3.94,3.94,0,0,0-3.94,3.94v2"/><circle class="cls-36" cx="18.94" cy="132.85" r="3.94"/><g id="Curity_symbol_grey"><path class="cls-38" d="M315,67.47l-.27.27a7.54,7.54,0,0,1-5.16,2.35,4.74,4.74,0,0,1-4.89-4.91,4.68,4.68,0,0,1,4.77-4.91,7.84,7.84,0,0,1,4.83,1.9l.26.23,2.65-2.77-.3-.25a12.13,12.13,0,0,0-7.72-2.79,8.7,8.7,0,0,0-7.26,3.62h-4.8l-.28,2.37h4a9.23,9.23,0,0,0-.27,1.29h-6l-.28,2.37h6.24a9.07,9.07,0,0,0,.27,1.3h-9l-.28,2.58H301.9a8.77,8.77,0,0,0,7.4,3.63,11.92,11.92,0,0,0,8.11-3.28l.28-.26Z"/><polygon class="cls-38" points="293.9 63.88 292.16 63.88 291.88 66.24 293.62 66.24 293.9 63.88"/></g></svg>