<?xml version="1.0" encoding="UTF-8"?>
<!DOCTYPE svg PUBLIC "-//W3C//DTD SVG 1.1//EN" "http://www.w3.org/Graphics/SVG/1.1/DTD/svg11.dtd">
<svg xmlns="http://www.w3.org/2000/svg" xmlns:xlink="http://www.w3.org/1999/xlink" version="1.1" width="702px" height="529px" viewBox="-0.5 -0.5 702 529"><defs/><g><rect x="155" y="0" width="100" height="40" fill="rgb(255, 255, 255)" stroke="rgb(0, 0, 0)" pointer-events="all"/><path d="M 205 40 L 205 520" fill="none" stroke="rgb(0, 0, 0)" stroke-miterlimit="10" stroke-dasharray="3 3" pointer-events="all"/><g fill="rgb(0, 0, 0)" font-family="Helvetica" text-anchor="middle" font-size="12px"><text x="204.5" y="24.5">App (e.g. OX)</text></g><path d="M 48.15 340 L 341.38 340" fill="none" stroke="rgb(0, 0, 0)" stroke-miterlimit="10" pointer-events="stroke"/><path d="M 348.38 340 L 341.38 343.5 L 341.38 336.5 Z" fill="rgb(0, 0, 0)" stroke="rgb(0, 0, 0)" stroke-miterlimit="10" pointer-events="all"/><g fill="rgb(0, 0, 0)" font-family="Helvetica" text-anchor="middle" font-size="11px"><rect fill="rgb(255, 255, 255)" stroke="none" x="133" y="312" width="133" height="27" stroke-width="0"/><text x="198.65" y="321.5">silent background login</text><text x="198.65" y="334.5">(see Silent Login Example)</text></g><path d="M 204.5 171.6 L 58.12 170.08" fill="none" stroke="rgb(0, 0, 0)" stroke-miterlimit="10" pointer-events="stroke"/><path d="M 51.12 170.01 L 58.15 166.58 L 58.08 173.58 Z" fill="rgb(0, 0, 0)" stroke="rgb(0, 0, 0)" stroke-miterlimit="10" pointer-events="all"/><g fill="rgb(0, 0, 0)" font-family="Helvetica" text-anchor="middle" font-size="11px"><rect fill="rgb(255, 255, 255)" stroke="none" x="82" y="155" width="92" height="14" stroke-width="0"/><text x="127" y="165.3">backend response</text></g><rect x="450" y="0" width="100" height="40" fill="rgb(255, 255, 255)" stroke="rgb(0, 0, 0)" pointer-events="all"/><path d="M 500 40 L 500 520" fill="none" stroke="rgb(0, 0, 0)" stroke-miterlimit="10" stroke-dasharray="3 3" pointer-events="all"/><g fill="rgb(0, 0, 0)" font-family="Helvetica" text-anchor="middle" font-size="12px"><text x="499.5" y="10.5">Backend</text><text x="499.5" y="24.5">(e.g. Nordeck Bot</text><text x="499.5" y="38.5">for Synapse)</text></g><path d="M 350 469 L 491.88 469" fill="none" stroke="rgb(0, 0, 0)" stroke-miterlimit="10" pointer-events="stroke"/><path d="M 498.88 469 L 491.88 472.5 L 491.88 465.5 Z" fill="rgb(0, 0, 0)" stroke="rgb(0, 0, 0)" stroke-miterlimit="10" pointer-events="all"/><g fill="rgb(0, 0, 0)" font-family="Helvetica" text-anchor="middle" font-size="11px"><rect fill="rgb(255, 255, 255)" stroke="none" x="353" y="414" width="146" height="54" stroke-width="0"/><text x="424.5" y="424.5">request action on</text><text x="424.5" y="437.5">backend API</text><text x="424.5" y="450.5">(with bearer token/credentials</text><text x="424.5" y="463.5">added by ICS)</text></g><path d="M 50 70 L 196.38 70" fill="none" stroke="rgb(0, 0, 0)" stroke-miterlimit="10" pointer-events="stroke"/><path d="M 203.38 70 L 196.38 73.5 L 196.38 66.5 Z" fill="rgb(0, 0, 0)" stroke="rgb(0, 0, 0)" stroke-miterlimit="10" pointer-events="all"/><g fill="rgb(0, 0, 0)" font-family="Helvetica" text-anchor="middle" font-size="11px"><rect fill="rgb(255, 255, 255)" stroke="none" x="93" y="55" width="69" height="14" stroke-width="0"/><text x="126.5" y="64.5">login Request</text></g><rect x="0" y="0" width="100" height="40" fill="rgb(255, 255, 255)" stroke="rgb(0, 0, 0)" pointer-events="all"/><path d="M 50 40 L 50 520" fill="none" stroke="rgb(0, 0, 0)" stroke-miterlimit="10" stroke-dasharray="3 3" pointer-events="all"/><g fill="rgb(0, 0, 0)" font-family="Helvetica" text-anchor="middle" font-size="12px"><text x="49.5" y="24.5">Browser</text></g><rect x="600" y="0" width="100" height="40" fill="rgb(255, 255, 255)" stroke="rgb(0, 0, 0)" pointer-events="all"/><path d="M 650 40 L 650 520" fill="none" stroke="rgb(0, 0, 0)" stroke-miterlimit="10" stroke-dasharray="3 3" pointer-events="all"/><g fill="rgb(0, 0, 0)" font-family="Helvetica" text-anchor="middle" font-size="12px"><text x="649.5" y="24.5">IdP (Keycloak)</text></g><path d="M 205.8 105.04 L 641.38 105.04" fill="none" stroke="rgb(0, 0, 0)" stroke-miterlimit="10" pointer-events="stroke"/><path d="M 648.38 105.04 L 641.38 108.54 L 641.38 101.54 Z" fill="rgb(0, 0, 0)" stroke="rgb(0, 0, 0)" stroke-miterlimit="10" pointer-events="all"/><g fill="rgb(0, 0, 0)" font-family="Helvetica" text-anchor="middle" font-size="11px"><rect fill="rgb(255, 255, 255)" stroke="none" x="416" y="90" width="25" height="14" stroke-width="0"/><text x="427.3" y="99.54">login</text></g><path d="M 52.1 219.96 L 100 219.99 Q 110 220 110 230 L 110 250 Q 110 260 100 260 L 57.62 260" fill="none" stroke="rgb(0, 0, 0)" stroke-miterlimit="10" pointer-events="stroke"/><path d="M 50.62 260 L 57.62 256.5 L 57.62 263.5 Z" fill="rgb(0, 0, 0)" stroke="rgb(0, 0, 0)" stroke-miterlimit="10" pointer-events="all"/><g fill="rgb(0, 0, 0)" font-family="Helvetica" text-anchor="middle" font-size="11px"><rect fill="rgb(255, 255, 255)" stroke="none" x="69" y="188" width="124" height="41" stroke-width="0"/><text x="129.5" y="198.6">Request Action</text><text x="129.5" y="211.6">(e.g. click "add Video </text><text x="129.5" y="224.6">Conference in Synapse")</text></g><path d="M 649.5 133.64 L 213.32 133.64" fill="none" stroke="rgb(0, 0, 0)" stroke-miterlimit="10" pointer-events="stroke"/><path d="M 206.32 133.64 L 213.32 130.14 L 213.32 137.14 Z" fill="rgb(0, 0, 0)" stroke="rgb(0, 0, 0)" stroke-miterlimit="10" pointer-events="all"/><g fill="rgb(0, 0, 0)" font-family="Helvetica" text-anchor="middle" font-size="11px"><rect fill="rgb(255, 255, 255)" stroke="none" x="547" y="120" width="59" height="14" stroke-width="0"/><text x="575" y="130.14">OIDCToken</text></g><path d="M 52.7 102.96 L 201.46 103.47" fill="none" stroke="rgb(0, 0, 0)" stroke-miterlimit="10" stroke-dasharray="3 3" pointer-events="stroke"/><path d="M 193.57 107.95 L 202.58 103.48 L 193.6 98.95" fill="none" stroke="rgb(0, 0, 0)" stroke-miterlimit="10" pointer-events="all"/><rect x="300" y="0" width="100" height="40" fill="rgb(255, 255, 255)" stroke="rgb(0, 0, 0)" pointer-events="all"/><path d="M 350 40 L 350 520" fill="none" stroke="rgb(0, 0, 0)" stroke-miterlimit="10" stroke-dasharray="3 3" pointer-events="all"/><g fill="rgb(0, 0, 0)" font-family="Helvetica" text-anchor="middle" font-size="12px"><text x="349.5" y="24.5">ICS</text></g><path d="M 649.75 390 L 358.12 390" fill="none" stroke="rgb(0, 0, 0)" stroke-miterlimit="10" pointer-events="stroke"/><path d="M 351.12 390 L 358.12 386.5 L 358.12 393.5 Z" fill="rgb(0, 0, 0)" stroke="rgb(0, 0, 0)" stroke-miterlimit="10" pointer-events="all"/><g fill="rgb(0, 0, 0)" font-family="Helvetica" text-anchor="middle" font-size="11px"><rect fill="rgb(255, 255, 255)" stroke="none" x="469" y="375" width="62" height="14" stroke-width="0"/><text x="499.25" y="384.5">OIDC Token</text></g><path d="M 350 370 L 641.38 370" fill="none" stroke="rgb(0, 0, 0)" stroke-miterlimit="10" pointer-events="stroke"/><path d="M 648.38 370 L 641.38 373.5 L 641.38 366.5 Z" fill="rgb(0, 0, 0)" stroke="rgb(0, 0, 0)" stroke-miterlimit="10" pointer-events="all"/><g fill="rgb(0, 0, 0)" font-family="Helvetica" text-anchor="middle" font-size="11px"><rect fill="rgb(255, 255, 255)" stroke="none" x="432" y="355" width="137" height="14" stroke-width="0"/><text x="499.5" y="364.5">Request Token for Backend</text></g><path d="M 50 420 L 341.88 420" fill="none" stroke="rgb(0, 0, 0)" stroke-miterlimit="10" pointer-events="stroke"/><path d="M 348.88 420 L 341.88 423.5 L 341.88 416.5 Z" fill="rgb(0, 0, 0)" stroke="rgb(0, 0, 0)" stroke-miterlimit="10" pointer-events="all"/><g fill="rgb(0, 0, 0)" font-family="Helvetica" text-anchor="middle" font-size="11px"><rect fill="rgb(255, 255, 255)" stroke="none" x="137" y="405" width="128" height="14" stroke-width="0"/><text x="199.5" y="414.5">request action on ICS API</text></g><path d="M 499.5 500.24 L 359.02 500.24" fill="none" stroke="rgb(0, 0, 0)" stroke-miterlimit="10" pointer-events="stroke"/><path d="M 352.02 500.24 L 359.02 496.74 L 359.02 503.74 Z" fill="rgb(0, 0, 0)" stroke="rgb(0, 0, 0)" stroke-miterlimit="10" pointer-events="all"/><g fill="rgb(0, 0, 0)" font-family="Helvetica" text-anchor="middle" font-size="11px"><rect fill="rgb(255, 255, 255)" stroke="none" x="380" y="485" width="92" height="14" stroke-width="0"/><text x="425" y="494.74">backend response</text></g><path d="M 350 519 L 58.32 518.96" fill="none" stroke="rgb(0, 0, 0)" stroke-miterlimit="10" pointer-events="stroke"/><path d="M 51.32 518.96 L 58.32 515.46 L 58.32 522.46 Z" fill="rgb(0, 0, 0)" stroke="rgb(0, 0, 0)" stroke-miterlimit="10" pointer-events="all"/><g fill="rgb(0, 0, 0)" font-family="Helvetica" text-anchor="middle" font-size="11px"><rect fill="rgb(255, 255, 255)" stroke="none" x="114" y="503" width="173" height="14" stroke-width="0"/><text x="199.5" y="513.48">proxied/stripped backend response</text></g></g></svg>
