<?xml version="1.0" encoding="UTF-8"?><svg xmlns="http://www.w3.org/2000/svg" xmlns:xlink="http://www.w3.org/1999/xlink" fill-opacity="1" color-rendering="auto" color-interpolation="auto" text-rendering="auto" stroke="black" stroke-linecap="square" width="636" stroke-miterlimit="10" shape-rendering="auto" stroke-opacity="1" fill="black" stroke-dasharray="none" font-weight="normal" stroke-width="1" height="315" font-family="'Dialog'" font-style="normal" stroke-linejoin="miter" font-size="12px" stroke-dashoffset="0" image-rendering="auto">
  <!--Generated by ySVG 2.5-->
  <defs id="genericDefs"/>
  <g>
    <defs id="defs1">
      <clipPath clipPathUnits="userSpaceOnUse" id="clipPath1">
        <path d="M0 0 L636 0 L636 315 L0 315 L0 0 Z"/>
      </clipPath>
      <clipPath clipPathUnits="userSpaceOnUse" id="clipPath2">
        <path d="M230 202 L866 202 L866 517 L230 517 L230 202 Z"/>
      </clipPath>
    </defs>
    <g fill="white" text-rendering="geometricPrecision" shape-rendering="geometricPrecision" transform="translate(-230,-202)" stroke="white">
      <rect x="230" width="636" height="315" y="202" clip-path="url(#clipPath2)" stroke="none"/>
    </g>
    <g fill="rgb(255,204,0)" text-rendering="geometricPrecision" shape-rendering="geometricPrecision" transform="matrix(1,0,0,1,-230,-202)" stroke="rgb(255,204,0)">
      <rect x="484.5418" width="39.8" height="249" y="253" clip-path="url(#clipPath2)" stroke="none"/>
    </g>
    <g text-rendering="geometricPrecision" stroke-miterlimit="1.45" shape-rendering="geometricPrecision" transform="matrix(1,0,0,1,-230,-202)" stroke-linecap="butt">
      <rect fill="none" x="484.5418" width="39.8" height="249" y="253" clip-path="url(#clipPath2)"/>
      <text x="489.5942" xml:space="preserve" y="230.2012" clip-path="url(#clipPath2)" font-family="sans-serif" stroke="none">Apps</text>
      <text x="456.7817" xml:space="preserve" y="244.1699" clip-path="url(#clipPath2)" font-family="sans-serif" stroke="none">(Nextcloud, OX)</text>
    </g>
    <g fill="rgb(255,204,0)" text-rendering="geometricPrecision" shape-rendering="geometricPrecision" transform="matrix(1,0,0,1,-230,-202)" stroke="rgb(255,204,0)">
      <rect x="251.96" width="39.8" height="249" y="253" clip-path="url(#clipPath2)" stroke="none"/>
    </g>
    <g text-rendering="geometricPrecision" stroke-miterlimit="1.45" shape-rendering="geometricPrecision" transform="matrix(1,0,0,1,-230,-202)" stroke-linecap="butt">
      <rect fill="none" x="251.96" width="39.8" height="249" y="253" clip-path="url(#clipPath2)"/>
      <text x="247.4147" xml:space="preserve" y="244.1699" clip-path="url(#clipPath2)" font-family="sans-serif" stroke="none">Browser</text>
    </g>
    <g fill="rgb(255,204,0)" text-rendering="geometricPrecision" shape-rendering="geometricPrecision" transform="matrix(1,0,0,1,-230,-202)" stroke="rgb(255,204,0)">
      <rect x="717.1237" width="39.8" height="249" y="253" clip-path="url(#clipPath2)" stroke="none"/>
    </g>
    <g text-rendering="geometricPrecision" stroke-miterlimit="1.45" shape-rendering="geometricPrecision" transform="matrix(1,0,0,1,-230,-202)" stroke-linecap="butt">
      <rect fill="none" x="717.1237" width="39.8" height="249" y="253" clip-path="url(#clipPath2)"/>
      <text x="669.6877" xml:space="preserve" y="244.1699" clip-path="url(#clipPath2)" font-family="sans-serif" stroke="none">Intercom Service (ICS)</text>
      <path fill="none" d="M484.5034 320.9477 L299.7741 320.9477" clip-path="url(#clipPath2)"/>
      <path d="M291.7741 320.9477 L303.7741 325.9477 L300.7741 320.9477 L303.7741 315.9477 Z" clip-path="url(#clipPath2)" stroke="none"/>
      <rect x="322.3189" y="297.9946" clip-path="url(#clipPath2)" fill="white" width="131.6641" height="45.9062" stroke="none"/>
      <text x="324.3189" xml:space="preserve" y="311.1333" clip-path="url(#clipPath2)" font-family="sans-serif" stroke="none">instruction to call ICS</text>
      <text x="328.2476" xml:space="preserve" y="325.102" clip-path="url(#clipPath2)" font-family="sans-serif" stroke="none">as part of response </text>
      <text x="358.7574" xml:space="preserve" y="339.0708" clip-path="url(#clipPath2)" font-family="sans-serif" stroke="none">Javascript</text>
      <path fill="none" d="M291.7796 269 L476.5688 269" clip-path="url(#clipPath2)"/>
      <path d="M484.5688 269 L472.5688 264 L475.5688 269 L472.5688 274 Z" clip-path="url(#clipPath2)" stroke="none"/>
      <rect x="370.1167" y="260.0156" clip-path="url(#clipPath2)" fill="white" width="36.0684" height="17.9688" stroke="none"/>
      <text x="372.1167" xml:space="preserve" y="273.1543" clip-path="url(#clipPath2)" font-family="sans-serif" stroke="none">GET /</text>
      <path fill="none" d="M291.76 377.5 L709.0977 377.5" clip-path="url(#clipPath2)"/>
      <path d="M717.0977 377.5 L705.0977 372.5 L708.0977 377.5 L705.0977 382.5 Z" clip-path="url(#clipPath2)" stroke="none"/>
      <text x="318.8201" xml:space="preserve" y="370.7325" clip-path="url(#clipPath2)" font-family="sans-serif" stroke="none">GET /endpoint</text>
      <path fill="none" d="M524.3724 444.8247 L709.0953 444.8247" clip-path="url(#clipPath2)"/>
      <path d="M717.0953 444.8247 L705.0953 439.8247 L708.0953 444.8247 L705.0953 449.8247 Z" clip-path="url(#clipPath2)" stroke="none"/>
      <rect x="563.2875" y="435.8403" clip-path="url(#clipPath2)" fill="white" width="104.2246" height="17.9688" stroke="none"/>
      <text x="565.2875" xml:space="preserve" y="448.979" clip-path="url(#clipPath2)" font-family="sans-serif" stroke="none">Status Response</text>
      <path fill="none" d="M756.9532 457.8889 L822.7673 457.8889 L822.7673 476.414 L764.9232 476.414" clip-path="url(#clipPath2)"/>
      <path d="M756.9232 476.414 L768.9232 481.414 L765.9232 476.414 L768.9232 471.414 Z" clip-path="url(#clipPath2)" stroke="none"/>
      <rect x="794.6404" y="448.9046" clip-path="url(#clipPath2)" fill="white" width="56.2539" height="17.9688" stroke="none"/>
      <text x="796.6404" xml:space="preserve" y="462.0432" clip-path="url(#clipPath2)" font-family="sans-serif" stroke="none">fix CORS</text>
      <path fill="none" d="M717.0784 404.4812 L532.3835 404.4812" clip-path="url(#clipPath2)"/>
      <path d="M524.3835 404.4812 L536.3835 409.4812 L533.3835 404.4812 L536.3835 399.4812 Z" clip-path="url(#clipPath2)" stroke="none"/>
      <rect x="552.6068" y="388.5125" clip-path="url(#clipPath2)" fill="white" width="136.252" height="31.9375" stroke="none"/>
      <text x="584.6918" xml:space="preserve" y="401.6512" clip-path="url(#clipPath2)" font-family="sans-serif" stroke="none">Request API</text>
      <text x="554.6068" xml:space="preserve" y="415.6199" clip-path="url(#clipPath2)" font-family="sans-serif" stroke="none">(e.g. /create-meeting)</text>
      <path fill="none" d="M717.1143 488.7729 L299.7671 488.7729" clip-path="url(#clipPath2)"/>
      <path d="M291.7671 488.7729 L303.7671 493.7729 L300.7671 488.7729 L303.7671 483.7729 Z" clip-path="url(#clipPath2)" stroke="none"/>
      <rect x="570.6015" y="479.7885" clip-path="url(#clipPath2)" fill="white" width="104.2246" height="17.9688" stroke="none"/>
      <text x="572.6016" xml:space="preserve" y="492.9272" clip-path="url(#clipPath2)" font-family="sans-serif" stroke="none">Status Response</text>
    </g>
  </g>
</svg>
